<?xml version="1.0" standalone="no"?>
<!DOCTYPE svg PUBLIC "-//W3C//DTD SVG 1.0//EN" "http://www.w3.org/TR/2001/REC-SVG-20010904/DTD/svg10.dtd">
<svg xmlns="http://www.w3.org/2000/svg" xmlns:xlink="http://www.w3.org/1999/xlink" id="body_1" width="22" height="16">

<g transform="matrix(0.7096774 0 0 0.6956522 0 0)">
	<g transform="matrix(0.30392158 0 0 0.2987013 0 0)">
		<g transform="matrix(0.15039062 0 0 0.15039062 12.5 -0)">
            <path d="M431.904 338.384C 393.71198 310.848 415.824 204.112 415.824 133.28C 415.824 62.447998 323.344 0 323.344 0L323.344 0L257.008 0L254.99199 0L188.65599 0C 188.65599 0 96.17599 62.464 96.17599 133.296C 96.17599 204.128 118.28799 310.84802 80.095985 338.40002C 41.903984 365.95203 15.76 369.872 15.76 369.872L15.76 369.872L15.76 409.216L254.99199 409.216L257.008 409.216L496.24 409.216L496.24 369.872C 496.24 369.872 470.112 365.936 431.904 338.384z" stroke="none" fill="#FF385C" fill-rule="nonzero" />
            <path d="M131.696 447.376L380.288 447.376C 380.288 447.376 356.86398 512 261.392 512C 165.92001 512 131.696 447.376 131.696 447.376z" stroke="none" fill="#000000" fill-rule="nonzero" />
			<g>
			</g>
			<g>
			</g>
			<g>
			</g>
			<g>
			</g>
			<g>
			</g>
			<g>
			</g>
			<g>
			</g>
			<g>
			</g>
			<g>
			</g>
			<g>
			</g>
			<g>
			</g>
			<g>
			</g>
			<g>
			</g>
			<g>
			</g>
			<g>
			</g>
		</g>
	</g>
</g>
</svg>