<?xml version="1.0" encoding="iso-8859-1"?>
<!-- Generator: Adobe Illustrator 19.0.0, SVG Export Plug-In . SVG Version: 6.00 Build 0)  -->
<svg version="1.1" id="Layer_1" xmlns="http://www.w3.org/2000/svg" xmlns:xlink="http://www.w3.org/1999/xlink" x="0px" y="0px"
	 viewBox="0 0 512 512" style="enable-background:new 0 0 512 512;" xml:space="preserve">
<path style="fill:#E21B1B;" d="M431.905,338.4c-38.2-27.544-16.08-134.272-16.08-205.096S323.345,0,323.345,0H188.656
	c0,0-92.48,62.464-92.48,133.296s22.112,177.552-16.08,205.095c-38.192,27.544-64.336,31.48-64.336,31.48v39.344h480.48v-39.344
	C496.241,369.872,470.105,365.936,431.905,338.4z"/>
<g style="opacity:0.25;">
	<path style="fill:#FFFFFF;" d="M15.76,409.216v-39.344c0,0,26.136-3.936,64.328-31.48c38.191-27.544,16.08-134.272,16.08-205.096
		S188.656,0,188.656,0h67.344v409.216H15.76z"/>
</g>
<path style="fill:#666666;" d="M131.705,447.376h248.592c0,0-28.816,64.624-124.296,64.624S131.705,447.376,131.705,447.376z"/>
<g>
</g>
<g>
</g>
<g>
</g>
<g>
</g>
<g>
</g>
<g>
</g>
<g>
</g>
<g>
</g>
<g>
</g>
<g>
</g>
<g>
</g>
<g>
</g>
<g>
</g>
<g>
</g>
<g>
</g>
</svg>
